<?xml version="1.0" encoding="utf-8"?>
<!-- Generator: Adobe Illustrator 22.0.1, SVG Export Plug-In . SVG Version: 6.00 Build 0)  -->
<svg version="1.1" id="Layer_1" xmlns="http://www.w3.org/2000/svg" xmlns:xlink="http://www.w3.org/1999/xlink" x="0px" y="0px"
	 viewBox="0 0 201 201" style="enable-background:new 0 0 201 201;" xml:space="preserve">
<style type="text/css">
	.st0{fill:#FFFFFF;}
</style>
<g>
	<g>
		<path class="st0" d="M1,107C1,71.7,1,36.3,1,1c66.7,0,133.3,0,200,0c0,66.7,0,133.3,0,200c-66.7,0-133.3,0-200,0
			c0-29.7,0-59.3,0-89c1.7,6.9,3.2,13.9,5.1,20.7c4.3,15.1,10,29.7,20.6,41.7c8.6,9.8,19.4,15,32.5,12.3c6.2-1.3,12.4-3.9,18-6.9
			c15.8-8.6,25.6-22.6,32.7-38.6c6.4-14.3,11.9-28.9,18.1-43.3c11.2-25.9,28.1-46.7,53.7-59.5c5.5-2.7,11.2-5,17.1-7.7
			c-1.8-4-3.5-7.8-5.3-11.8c-31.1,11.3-57.6,28.5-76.6,55.2c-9.5,13.3-16.5,28.4-25,42.5c-2.8,4.6-5.9,9.3-9.8,13
			c-3.7,3.7-6.1,2.5-7.5-2.7c-3.5-12.5-6.8-25-10.5-37.5c-2.4-7.8-5.4-10.2-13.5-9.4C30.4,82.3,12.8,89.5,1,107z"/>
		<path d="M1,107c11.8-17.5,29.4-24.7,49.5-26.7c8.1-0.8,11.2,1.6,13.5,9.4c3.8,12.4,7.1,25,10.5,37.5c1.4,5.1,3.8,6.3,7.5,2.7
			c3.8-3.8,7-8.4,9.8-13c8.4-14.1,15.5-29.2,25-42.5c19-26.7,45.5-43.9,76.6-55.2c1.8,3.9,3.5,7.8,5.3,11.8
			c-5.9,2.7-11.6,5-17.1,7.7C156.1,51.3,139.1,72.1,128,98c-6.2,14.4-11.8,29-18.1,43.3c-7.1,16-16.9,30-32.7,38.6
			c-5.6,3.1-11.8,5.7-18,6.9c-13.1,2.7-23.8-2.5-32.5-12.3c-10.6-12-16.2-26.6-20.6-41.7c-2-6.8-3.4-13.8-5.1-20.7
			C1,110.3,1,108.7,1,107z M8.4,109c12.6,4.4,44.6-10.3,46.8-21.5C40.1,84.9,13.3,97.3,8.4,109z"/>
		<path class="st0" d="M8.4,109c4.9-11.7,31.7-24,46.8-21.5C52.9,98.7,21,113.4,8.4,109z"/>
	</g>
</g>
</svg>
